<?xml version="1.0" encoding="UTF-8"?>
<svg id="Camada_1" xmlns="http://www.w3.org/2000/svg" xmlns:xlink="http://www.w3.org/1999/xlink" version="1.1" viewBox="0 0 226.77 226.77">
  <!-- Generator: Adobe Illustrator 30.0.0, SVG Export Plug-In . SVG Version: 2.1.1 Build 123)  -->
  <defs>
    <style>
      .st0 {
        fill: url(#linear-gradient);
        fill-rule: evenodd;
      }
    </style>
    <linearGradient id="linear-gradient" x1="164.48" y1="-555.35" x2="9.77" y2="-422.31" gradientTransform="translate(0 -380) scale(1 -1)" gradientUnits="userSpaceOnUse">
      <stop offset=".09" stop-color="#0057ff"/>
      <stop offset=".27" stop-color="#0478f0"/>
      <stop offset=".76" stop-color="#11d1c9"/>
      <stop offset=".98" stop-color="#17f5ba"/>
    </linearGradient>
  </defs>
  <path class="st0" d="M36.89,17.89h64.21c5.6,0,11.16.03,16.72.35,49.59,2.56,88.48,43.53,88.48,93.19s-38.89,90.63-88.48,93.19c-7.13.54-14.33.65-21.49.65h-59.43c-5.34,0-9.7-4.35-9.7-9.69V27.58c0-5.34,4.35-9.69,9.7-9.69h0ZM41.06,68.33l76.3,23.5c.14.03.28.08.43.08l3.46.89c.75.21,1.5-.14,1.85-.85.32-.71.14-1.53-.5-1.99l-2.78-2.07c-.14-.14-.25-.25-.39-.36l-3.1-2.07-.11-.07h0L39.14,33.4c-.75-.54-1.68-.57-2.5-.14-.79.43-1.25,1.21-1.25,2.1v25.27c0,3.6,2.24,6.67,5.67,7.7h0ZM49.44,30.47l87.81,59.22c.82.57,1.85.57,2.67,0,.85-.54,1.21-1.5,1.03-2.46l-11.9-56.94c-.36-1.61-1.57-2.78-3.21-3.03-2.78-.43-5.63-.71-8.45-.85-5.42-.28-10.84-.32-16.29-.32h-50.3c-1.07,0-1.99.68-2.31,1.68-.28,1.03.07,2.1.96,2.71h0ZM138.13,33.86l11.62,55.61c.21,1,.93,1.71,1.93,1.89.96.18,1.93-.25,2.46-1.07l21.03-32.76c.96-1.5.79-3.43-.46-4.74-9.26-9.73-20.75-17.19-33.44-21.68-.85-.28-1.71-.14-2.39.46-.68.6-.93,1.42-.75,2.28h0ZM180.21,64.84l-22.53,35.08c-.47.71-.54,1.5-.22,2.24.35.78.96,1.25,1.78,1.42l34.15,6.35c1.21.22,2.35-.11,3.28-.89.89-.82,1.36-1.93,1.28-3.14-.96-14.68-5.67-28.81-13.72-41.1-.46-.71-1.17-1.11-2.04-1.07-.85,0-1.57.39-1.99,1.11h0ZM194.28,118.39l-35.05-6.49c-1.6-.32-3.07.07-4.31,1.11-1.28,1.03-1.93,2.42-1.93,4.03l-.57,65.77c0,.89.43,1.64,1.21,2.1.75.43,1.64.43,2.39-.03,22.57-13.23,37.93-36.19,41.36-62.21.25-2-1.11-3.89-3.1-4.28h0ZM117.38,196.46c6.06-.32,12.09-1.28,17.93-2.85.89-.25,1.53-.92,1.71-1.82.22-.89-.07-1.74-.78-2.35l-37.26-31.23c-2.5-2.1-6.02-2.14-8.55-.11l-43.14,34.69c-.82.65-1.11,1.71-.75,2.67.32,1,1.21,1.61,2.24,1.61h47.52c7.02,0,14.05-.11,21.07-.61h0ZM39.99,170.15l32.51-75.79c.79-1.82.75-3.67-.07-5.49-.85-1.78-2.24-3.03-4.14-3.6l-29.8-9.16c-.75-.25-1.5-.11-2.14.35-.65.46-.96,1.14-.96,1.93v90.84c0,1.14.79,2.1,1.93,2.35,1.11.21,2.21-.36,2.67-1.42h0ZM80.92,95.46l-35.37,82.46c-.43,1-.14,2.18.75,2.86s2.1.64,2.96-.03l87.66-70.45c.71-.57,1.03-1.42.85-2.32-.18-.89-.79-1.57-1.68-1.85l-47.03-14.44c-3.28-1.03-6.81.57-8.17,3.78h.02ZM107.55,154.72l32.8,27.48c.75.65,1.68.75,2.53.36.89-.39,1.39-1.21,1.42-2.17l.5-60.92c0-.93-.5-1.75-1.36-2.18-.85-.39-1.82-.32-2.53.28l-33.26,26.74c-1.64,1.32-2.5,3.07-2.53,5.17,0,2.1.82,3.89,2.42,5.24h0Z"/>
</svg>