<?xml version="1.0" encoding="UTF-8"?>
<svg id="Camada_1" data-name="Camada 1" xmlns="http://www.w3.org/2000/svg" viewBox="0 0 226.77 226.77">
  <defs>
    <style>
      .cls-1 {
        fill: #eff3ff;
        fill-rule: evenodd;
      }
    </style>
  </defs>
  <path class="cls-1" d="M41.86,22.61h62.59c5.46,0,10.88.03,16.3.35,48.34,2.5,86.26,42.43,86.26,90.84s-37.92,88.34-86.26,90.84c-6.95.52-13.97.63-20.96.63h-57.93c-5.21,0-9.45-4.24-9.45-9.45V32.06c0-5.21,4.24-9.45,9.45-9.45h0ZM45.93,71.78l74.37,22.9c.14.03.28.07.42.07l3.37.87c.73.21,1.46-.14,1.81-.83.31-.7.14-1.5-.49-1.95l-2.71-2.01c-.14-.14-.24-.24-.38-.35l-3.02-2.02-.11-.07h0L44.05,37.73c-.73-.52-1.63-.56-2.43-.14-.76.42-1.22,1.18-1.22,2.05v24.64c0,3.51,2.19,6.5,5.53,7.51h0ZM54.1,34.87l85.6,57.72c.8.56,1.81.56,2.61,0,.83-.52,1.18-1.46,1.01-2.4l-11.61-55.5c-.35-1.57-1.53-2.71-3.13-2.96-2.71-.42-5.49-.69-8.24-.83-5.28-.28-10.57-.31-15.88-.31h-49.04c-1.04,0-1.94.66-2.26,1.63-.28,1.01.07,2.05.94,2.64h0ZM140.56,38.18l11.33,54.21c.21.97.9,1.67,1.88,1.84.94.18,1.88-.24,2.4-1.04l20.5-31.94c.94-1.46.76-3.34-.45-4.62-9.04-9.49-20.23-16.75-32.6-21.13-.83-.28-1.67-.14-2.33.45-.66.59-.9,1.39-.73,2.22h0ZM181.57,68.38l-21.96,34.2c-.45.69-.52,1.46-.21,2.19.35.76.94,1.22,1.74,1.39l33.29,6.19c1.18.21,2.29-.1,3.2-.87.87-.8,1.32-1.88,1.25-3.06-.94-14.32-5.53-28.08-13.38-40.07-.45-.7-1.15-1.08-1.98-1.04-.83,0-1.53.38-1.95,1.08h0ZM195.3,120.58l-34.16-6.32c-1.56-.31-2.99.07-4.2,1.08-1.25,1.01-1.88,2.36-1.88,3.93l-.56,64.12c0,.87.42,1.6,1.18,2.05.73.42,1.6.42,2.33-.03,22-12.89,36.98-35.28,40.31-60.64.24-1.95-1.08-3.79-3.02-4.17h0ZM120.34,196.68c5.91-.31,11.78-1.25,17.48-2.78.87-.24,1.49-.9,1.67-1.77.21-.87-.07-1.7-.76-2.29l-36.32-30.44c-2.43-2.05-5.87-2.09-8.34-.11l-42.05,33.82c-.8.63-1.08,1.67-.73,2.6.31.97,1.18,1.56,2.19,1.56h46.33c6.85,0,13.69-.1,20.54-.59h0ZM44.89,171.04l31.69-73.89c.76-1.77.73-3.58-.07-5.35-.83-1.74-2.19-2.95-4.03-3.51l-29.05-8.93c-.73-.24-1.46-.1-2.09.35-.63.45-.94,1.11-.94,1.88v88.55c0,1.11.77,2.05,1.88,2.29,1.08.21,2.15-.35,2.61-1.39h0ZM84.78,98.23l-34.47,80.38c-.42.97-.14,2.12.73,2.78.87.66,2.05.62,2.88-.04l85.46-68.67c.7-.56,1.01-1.39.83-2.26-.17-.87-.76-1.53-1.63-1.81l-45.84-14.08c-3.2-1.01-6.64.56-7.96,3.68h0ZM110.74,155.99l31.97,26.79c.73.63,1.63.73,2.47.35.87-.38,1.36-1.18,1.39-2.12l.49-59.39c0-.9-.49-1.71-1.32-2.12-.83-.38-1.77-.31-2.47.28l-32.42,26.06c-1.6,1.29-2.43,2.99-2.47,5.04,0,2.05.8,3.79,2.36,5.11h0Z"/>
</svg>